<svg width="488" height="156" viewBox="0 0 488 156" fill="none" xmlns="http://www.w3.org/2000/svg">
<path d="M84.592 44.2336V12.0352C84.59 11.4752 84.3642 10.9387 83.964 10.5428C83.5638 10.1468 83.0215 9.92344 82.4555 9.92139H39.4185C38.8533 9.92345 38.3119 10.1471 37.9129 10.5433C37.5139 10.9394 37.2899 11.4759 37.2899 12.0352V43.3522C37.2886 43.7227 37.1888 44.0864 37.0006 44.4067C36.8124 44.727 36.5425 44.9928 36.2177 45.1774L13.4418 58.1878C13.1109 58.3766 12.8376 58.6501 12.6503 58.9795C12.463 59.3088 12.3688 59.682 12.3775 60.0598V112.218C12.3756 112.589 12.4732 112.953 12.6602 113.273C12.8472 113.594 13.1169 113.86 13.4418 114.044L59.1277 140.088C59.453 140.272 59.8213 140.369 60.196 140.369C60.5707 140.369 60.9389 140.272 61.2642 140.088L106.927 114.005C107.25 113.82 107.519 113.554 107.706 113.233C107.893 112.913 107.991 112.549 107.991 112.179V60.0598C107.991 59.6889 107.893 59.3244 107.706 59.0028C107.519 58.6812 107.25 58.4136 106.927 58.2268L85.6563 46.0588C85.3325 45.8738 85.0637 45.6078 84.8769 45.2874C84.69 44.9669 84.5918 44.6035 84.592 44.2336ZM100.068 110.105L61.2327 132.288C60.9074 132.472 60.5392 132.569 60.1644 132.569C59.7897 132.569 59.4215 132.472 59.0962 132.288L20.2691 110.105C19.9442 109.921 19.6745 109.655 19.4875 109.334C19.3005 109.014 19.2029 108.65 19.2048 108.279V63.9598C19.2031 63.5886 19.3007 63.2235 19.4876 62.9016C19.6745 62.5797 19.9441 62.3124 20.2691 62.1268L43.3131 48.9214C43.6389 48.738 43.9097 48.4725 44.0981 48.1519C44.2864 47.8313 44.3855 47.467 44.3852 47.0962V19.7962C44.3832 19.5183 44.4367 19.2428 44.5427 18.9855C44.6488 18.7281 44.8052 18.4941 45.0031 18.2969C45.201 18.0997 45.4363 17.9432 45.6956 17.8364C45.9549 17.7296 46.233 17.6746 46.5138 17.6746H73.7835C74.3488 17.6746 74.891 17.8962 75.2914 18.2909C75.6919 18.6857 75.9179 19.2213 75.92 19.7806V47.0806C75.9192 47.4517 76.0171 47.8164 76.2039 48.1382C76.3907 48.4599 76.6599 48.7274 76.9843 48.9136L100.068 62.0878C100.397 62.2779 100.67 62.5516 100.857 62.8807C101.044 63.2098 101.139 63.5823 101.132 63.9598V108.318C101.125 108.682 101.024 109.037 100.837 109.35C100.651 109.663 100.386 109.923 100.068 110.105Z" fill="url(#paint0_linear)"/>
<path d="M169.231 104.239C159.86 105.066 152.081 105.482 145.895 105.487C141.775 105.487 138.748 104.53 136.813 102.617C134.879 100.703 133.912 97.6975 133.912 93.5999V73.6631C133.912 69.2951 134.911 66.1231 136.908 64.1471C138.905 62.1711 142.111 61.1831 146.526 61.1831H169.231V69.9191H149.049C146.526 69.9191 145.265 71.1671 145.265 73.6631V93.5999C145.246 94.0166 145.311 94.4328 145.457 94.824C145.604 95.2152 145.828 95.5734 146.116 95.8775C146.402 96.1572 146.742 96.3762 147.116 96.5211C147.49 96.6659 147.891 96.7336 148.292 96.7199C149.175 96.7199 150.145 96.7199 151.193 96.7199L154.473 96.6263L157.91 96.5015C159.069 96.4547 160.559 96.3767 162.388 96.2519C164.217 96.1271 166.495 95.9789 169.231 95.8151V104.239Z" fill="#262626"/>
<path d="M184.683 72.4151C188.206 71.6444 191.798 71.2263 195.405 71.1671H198.243C199.507 71.0844 200.775 71.2698 201.96 71.7109C203.146 72.152 204.223 72.8387 205.118 73.7249C206.014 74.6111 206.708 75.6765 207.154 76.8496C207.6 78.0227 207.787 79.2765 207.704 80.5271V104.863H196.666V81.7751C196.674 81.4863 196.622 81.199 196.514 80.9307C196.405 80.6624 196.243 80.4189 196.036 80.2151C195.831 80.0088 195.585 79.8469 195.314 79.7395C195.042 79.6321 194.751 79.5815 194.459 79.5911H192.252C190.787 79.5807 189.322 79.6641 187.868 79.8407C186.544 80.0045 185.503 80.1293 184.715 80.2151V104.863H173.678V61.1831H184.715L184.683 72.4151Z" fill="#262626"/>
<path d="M244.284 104.239C236.952 105.025 229.584 105.441 222.209 105.487C220.945 105.57 219.678 105.384 218.492 104.943C217.307 104.502 216.23 103.815 215.334 102.929C214.438 102.043 213.744 100.978 213.299 99.8045C212.853 98.6313 212.665 97.3775 212.749 96.1269V81.1197C212.749 77.9997 213.642 75.5557 215.429 73.7877C217.216 72.0197 219.687 71.1357 222.84 71.1357H235.454C238.607 71.1357 241.078 72.0197 242.865 73.7877C244.652 75.5557 245.545 77.9997 245.545 81.1197V92.6637H223.786V95.1597C223.778 95.4486 223.83 95.736 223.939 96.0043C224.047 96.2727 224.209 96.5165 224.416 96.7208C224.622 96.9251 224.869 97.0857 225.14 97.1928C225.411 97.2999 225.702 97.3513 225.994 97.3437C230.156 97.3437 236.253 97.0317 244.284 96.4077V104.239ZM226.309 78.9669C224.622 78.9669 223.786 79.7937 223.786 81.4629V84.8949H234.508V81.4629C234.508 79.7937 233.664 78.9669 231.985 78.9669H226.309Z" fill="#262626"/>
<path d="M273.611 71.1669C275.136 71.0949 276.655 71.3994 278.031 72.053C279.407 72.7066 280.598 73.6887 281.495 74.9109C283.421 73.6204 285.553 72.6606 287.802 72.0717C289.76 71.5082 291.786 71.2039 293.825 71.1669H294.455C295.719 71.0842 296.987 71.2696 298.172 71.7107C299.358 72.1519 300.435 72.8385 301.331 73.7247C302.226 74.611 302.92 75.6763 303.366 76.8494C303.812 78.0225 304 79.2764 303.916 80.5269V104.863H292.879V82.3989C292.886 82.1101 292.834 81.8227 292.726 81.5544C292.618 81.286 292.456 81.0422 292.249 80.8379C292.043 80.6336 291.796 80.473 291.525 80.3659C291.254 80.2588 290.963 80.2074 290.671 80.2149H290.356C287.893 80.307 285.453 80.7267 283.103 81.4629V104.863H272.066V82.3989C272.073 82.1101 272.021 81.8227 271.913 81.5544C271.805 81.286 271.643 81.0422 271.436 80.8379C271.23 80.6336 270.983 80.473 270.712 80.3659C270.441 80.2588 270.15 80.2074 269.858 80.2149H269.543C267.08 80.307 264.64 80.7267 262.29 81.4629V104.863H251.253V71.7597H261.029L261.659 74.8797C263.531 73.6336 265.583 72.6763 267.746 72.0405C269.45 71.4964 271.222 71.1919 273.012 71.1357L273.611 71.1669Z" fill="#262626"/>
<path d="M343.618 95.5029C343.618 98.6229 342.725 101.067 340.938 102.835C339.151 104.603 336.68 105.487 333.527 105.487H319.021C315.868 105.487 313.397 104.603 311.61 102.835C309.823 101.067 308.93 98.6229 308.93 95.5029V81.1197C308.93 77.9997 309.823 75.5557 311.61 73.7877C313.397 72.0197 315.868 71.1357 319.021 71.1357H333.527C336.68 71.1357 339.151 72.0197 340.938 73.7877C342.725 75.5557 343.618 77.9997 343.618 81.1197V95.5029ZM332.581 82.0869C332.581 80.4177 331.737 79.5909 330.058 79.5909H322.49C320.803 79.5909 319.967 80.4177 319.967 82.0869V94.5669C319.967 96.2283 320.803 97.063 322.49 97.063H330.058C331.735 97.063 332.576 96.2309 332.581 94.5669V82.0869Z" fill="#262626"/>
<path d="M367.9 80.2151C365.33 80.2679 362.781 80.6883 360.332 81.4631V104.863H349.295V71.7599H359.07L359.701 74.8799C361.58 73.6433 363.637 72.6965 365.803 72.0719C367.507 71.5278 369.28 71.2233 371.069 71.1671H373.908C375.172 71.0844 376.439 71.2698 377.625 71.7109C378.81 72.1521 379.887 72.8387 380.783 73.7249C381.678 74.6112 382.373 75.6765 382.818 76.8496C383.264 78.0227 383.452 79.2766 383.368 80.5271V104.863H372.331V82.3991C372.338 82.1103 372.286 81.8229 372.178 81.5546C372.07 81.2862 371.908 81.0424 371.701 80.8381C371.495 80.6338 371.248 80.4732 370.977 80.3661C370.706 80.259 370.415 80.2076 370.123 80.2151H367.9Z" fill="#262626"/>
<path d="M402.896 73.0391V104.863H391.859V81.4631H387.129V73.0391H402.896ZM391.859 60.5591H402.896V69.2951H391.859V60.5591Z" fill="#262626"/>
<path d="M438.845 104.239C431.934 105.013 424.987 105.43 418.032 105.487C416.768 105.57 415.501 105.384 414.315 104.943C413.13 104.502 412.053 103.815 411.157 102.929C410.262 102.043 409.567 100.978 409.122 99.8045C408.676 98.6314 408.488 97.3776 408.572 96.127V81.775C408.572 78.655 409.466 76.211 411.252 74.443C413.039 72.675 415.51 71.791 418.663 71.791H438.845V80.215H422.132C420.453 80.215 419.609 81.0418 419.609 82.711V94.879C419.602 95.1679 419.653 95.4552 419.762 95.7236C419.87 95.992 420.032 96.2357 420.239 96.44C420.445 96.6444 420.692 96.805 420.963 96.9121C421.234 97.0192 421.525 97.0705 421.817 97.063C425.601 97.063 431.277 96.751 438.845 96.127V104.239Z" fill="#262626"/>
<path d="M445.468 72.4151C452.377 71.6277 459.325 71.2111 466.281 71.1671C467.545 71.0844 468.812 71.2698 469.998 71.7109C471.183 72.1521 472.26 72.8387 473.156 73.7249C474.052 74.6112 474.746 75.6765 475.191 76.8496C475.637 78.0227 475.825 79.2766 475.741 80.5271V104.863H465.965L465.335 101.743C463.459 102.983 461.408 103.94 459.248 104.582C457.544 105.123 455.771 105.427 453.982 105.487H451.775C450.511 105.57 449.243 105.384 448.058 104.943C446.872 104.502 445.795 103.816 444.899 102.929C444.004 102.043 443.31 100.978 442.864 99.8046C442.418 98.6315 442.231 97.3777 442.314 96.1271V93.3191C442.231 92.0686 442.418 90.8147 442.864 89.6416C443.31 88.4685 444.004 87.4032 444.899 86.5169C445.795 85.6307 446.872 84.944 448.058 84.5029C449.243 84.0618 450.511 83.8764 451.775 83.9591H464.704V81.4631C464.711 81.1743 464.66 80.8869 464.551 80.6186C464.443 80.3502 464.281 80.1064 464.074 79.9021C463.868 79.6978 463.621 79.5372 463.35 79.4301C463.079 79.323 462.788 79.2716 462.496 79.2791C459.769 79.2791 456.752 79.4039 453.446 79.6535C450.151 79.9031 447.486 80.0903 445.468 80.2151V72.4151ZM457.136 96.7511C459.706 96.6944 462.254 96.2742 464.704 95.5031V91.7591H455.559C455.267 91.7516 454.976 91.803 454.705 91.9101C454.434 92.0172 454.188 92.1778 453.981 92.3821C453.775 92.5864 453.612 92.8302 453.504 93.0986C453.396 93.3669 453.344 93.6543 453.351 93.9431V94.5671C453.344 94.856 453.396 95.1433 453.504 95.4117C453.612 95.6801 453.775 95.9238 453.981 96.1282C454.188 96.3325 454.434 96.4931 454.705 96.6002C454.976 96.7073 455.267 96.7586 455.559 96.7511H457.136Z" fill="#262626"/>
<path d="M82.03 86.5177L77.8595 82.3915L62.7307 97.3597V72.0253L74.4774 60.4111L70.2991 56.2849L62.7307 63.7729V51.8545H56.8337V84.8485L40.7826 68.9677L36.6121 73.1017L56.8337 93.1087V118.833H62.7307V105.62L82.03 86.5177Z" fill="url(#paint1_linear)"/>
<defs>
<linearGradient id="paint0_linear" x1="12.3775" y1="75.145" x2="107.959" y2="75.145" gradientUnits="userSpaceOnUse">
<stop stop-color="#8CC63F"/>
<stop offset="1" stop-color="#219653"/>
</linearGradient>
<linearGradient id="paint1_linear" x1="2145.82" y1="7379.98" x2="4762.34" y2="7379.98" gradientUnits="userSpaceOnUse">
<stop stop-color="#0CA54D"/>
<stop offset="1" stop-color="#219653"/>
</linearGradient>
</defs>
</svg>
