<svg width="154" height="40" viewBox="0 0 154 40" fill="none" xmlns="http://www.w3.org/2000/svg">
<path d="M25.9492 13.7324V16.4277C24.6341 15.3275 23.2734 14.7773 21.8672 14.7773C20.3177 14.7773 19.0124 15.334 17.9512 16.4473C16.8835 17.554 16.3496 18.9082 16.3496 20.5098C16.3496 22.0918 16.8835 23.4264 17.9512 24.5137C19.0189 25.6009 20.3275 26.1445 21.877 26.1445C22.6777 26.1445 23.3581 26.0143 23.918 25.7539C24.2305 25.6237 24.5527 25.4479 24.8848 25.2266C25.2233 25.0052 25.5781 24.7383 25.9492 24.4258V27.1699C24.6471 27.9056 23.2799 28.2734 21.8477 28.2734C19.6927 28.2734 17.8535 27.5215 16.3301 26.0176C14.8132 24.5007 14.0547 22.6712 14.0547 20.5293C14.0547 18.6087 14.6895 16.8965 15.959 15.3926C17.5215 13.5501 19.543 12.6289 22.0234 12.6289C23.3776 12.6289 24.6862 12.9967 25.9492 13.7324ZM31.5352 18.8203H38.0391V12.9219H40.3145V28H38.0391V20.959H31.5352V28H29.2598V12.9219H31.5352V18.8203ZM52.248 15.0605H46.2031V18.6836H52.0723V20.8223H46.2031V25.8613H52.248V28H43.9277V12.9219H52.248V15.0605ZM54.709 28L57.8828 11.7891L63.0586 23.5078L68.4199 11.7891L71.2715 28H68.9375L67.4824 18.8984L63.0195 28.6934L58.6836 18.8887L57.0625 28H54.709ZM73.7227 20.3926C73.7227 18.2702 74.5007 16.4473 76.0566 14.9238C77.6061 13.4004 79.4681 12.6387 81.6426 12.6387C83.791 12.6387 85.6335 13.4069 87.1699 14.9434C88.7129 16.4798 89.4844 18.3255 89.4844 20.4805C89.4844 22.6484 88.7096 24.4876 87.1602 25.998C85.6042 27.515 83.7259 28.2734 81.5254 28.2734C79.5788 28.2734 77.8307 27.5996 76.2812 26.252C74.5755 24.7611 73.7227 22.8079 73.7227 20.3926ZM76.0176 20.4219C76.0176 22.0885 76.5775 23.459 77.6973 24.5332C78.8105 25.6074 80.0964 26.1445 81.5547 26.1445C83.1367 26.1445 84.4714 25.5977 85.5586 24.5039C86.6458 23.3971 87.1895 22.0495 87.1895 20.4609C87.1895 18.8529 86.6523 17.5052 85.5781 16.418C84.5104 15.3242 83.1888 14.7773 81.6133 14.7773C80.0443 14.7773 78.7194 15.3242 77.6387 16.418C76.5579 17.4987 76.0176 18.8333 76.0176 20.4219ZM92.3457 28V11.8965L103.342 23.4004V12.9219H105.617V28.918L94.6211 17.4434V28H92.3457ZM111.516 12.9219V28H109.24V12.9219H111.516ZM117.414 18.9375L123.283 12.9219H126.32L119.504 19.748L126.359 28H123.312L117.883 21.291L117.414 21.7598V28H115.139V12.9219H117.414V18.9375ZM137.258 24.3379H130.803L129.123 28H126.672L134.133 11.9746L141.33 28H138.84L137.258 24.3379ZM136.33 22.1992L134.094 17.0723L131.75 22.1992H136.33Z" fill="black"/>
<path fill-rule="evenodd" clip-rule="evenodd" d="M21.76 39.8667L21.76 34.3467L5.52001 34.3467L5.52001 18L1.14484e-05 18L1.00193e-05 34.3467L9.5484e-06 39.7333L9.53674e-06 39.8667L21.76 39.8667Z" fill="#219653"/>
<path fill-rule="evenodd" clip-rule="evenodd" d="M132 0V5.52H148.24V21.8667H153.76V5.52V0.133333V0H132Z" fill="#219653"/>
</svg>
