<svg width="488" height="156" viewBox="0 0 488 156" fill="none" xmlns="http://www.w3.org/2000/svg">
<path d="M84.592 44.2338V12.0354C84.5899 11.4754 84.3642 10.9389 83.964 10.543C83.5638 10.147 83.0215 9.92362 82.4555 9.92157H39.4185C38.8533 9.92363 38.3119 10.1472 37.9129 10.5434C37.5139 10.9396 37.2899 11.4761 37.2899 12.0354V43.3524C37.2886 43.7229 37.1888 44.0865 37.0006 44.4069C36.8124 44.7272 36.5425 44.993 36.2177 45.1776L13.4418 58.188C13.1109 58.3768 12.8376 58.6503 12.6503 58.9796C12.463 59.309 12.3688 59.6822 12.3775 60.06V112.219C12.3756 112.589 12.4732 112.953 12.6602 113.274C12.8472 113.594 13.1169 113.86 13.4418 114.044L59.1277 140.088C59.453 140.272 59.8213 140.369 60.196 140.369C60.5707 140.369 60.9389 140.272 61.2642 140.088L106.927 114.005C107.25 113.82 107.519 113.554 107.706 113.233C107.893 112.913 107.991 112.549 107.991 112.18V60.06C107.991 59.6891 107.893 59.3246 107.706 59.003C107.519 58.6814 107.25 58.4138 106.927 58.227L85.6563 46.059C85.3325 45.874 85.0637 45.6079 84.8769 45.2875C84.69 44.9671 84.5918 44.6037 84.592 44.2338ZM100.068 110.105L61.2327 132.288C60.9074 132.472 60.5391 132.569 60.1644 132.569C59.7897 132.569 59.4215 132.472 59.0962 132.288L20.2691 110.105C19.9442 109.921 19.6745 109.655 19.4875 109.335C19.3005 109.014 19.2029 108.65 19.2048 108.28V63.96C19.2031 63.5887 19.3007 63.2237 19.4876 62.9018C19.6745 62.5799 19.9441 62.3126 20.2691 62.127L43.3131 48.9216C43.6389 48.7382 43.9097 48.4727 44.0981 48.1521C44.2864 47.8315 44.3855 47.4672 44.3852 47.0964V19.7964C44.3832 19.5185 44.4367 19.243 44.5427 18.9856C44.6488 18.7283 44.8052 18.4943 45.0031 18.2971C45.201 18.0999 45.4363 17.9434 45.6956 17.8366C45.9549 17.7297 46.233 17.6748 46.5138 17.6748H73.7835C74.3488 17.6748 74.891 17.8964 75.2914 18.2911C75.6919 18.6859 75.9179 19.2215 75.92 19.7808V47.0808C75.9191 47.4518 76.0171 47.8166 76.2039 48.1384C76.3907 48.4601 76.6599 48.7275 76.9843 48.9138V48.9138L100.068 62.088C100.397 62.2781 100.67 62.5518 100.857 62.8809C101.044 63.21 101.139 63.5825 101.132 63.96V108.319C101.125 108.682 101.024 109.037 100.837 109.35C100.651 109.663 100.386 109.923 100.068 110.105V110.105Z" fill="url(#paint0_linear_212_0)"/>
<path d="M82.03 86.5176L77.8595 82.3914L62.7307 97.3596V72.0252L74.4774 60.411L70.2991 56.2848L62.7307 63.7728V51.8544H56.8337V84.8484L40.7826 68.9676L36.6121 73.1016L56.8337 93.1086V118.833H62.7307V105.62L82.03 86.5176Z" fill="url(#paint1_linear_212_0)"/>
<path d="M162.84 104.8C153.325 105.653 145.432 106.08 139.16 106.08C134.979 106.08 131.907 105.099 129.944 103.136C127.981 101.173 127 98.1013 127 93.92V73.44C127 68.96 128.003 65.7173 130.008 63.712C132.056 61.664 135.32 60.64 139.8 60.64H162.84V69.6H142.36C139.8 69.6 138.52 70.88 138.52 73.44V93.92C138.52 94.9013 138.797 95.6907 139.352 96.288C139.949 96.8427 140.696 97.12 141.592 97.12C142.488 97.12 143.469 97.12 144.536 97.12C145.603 97.0773 146.712 97.0347 147.864 96.992C149.016 96.9493 150.168 96.9067 151.32 96.864C152.515 96.8213 154.029 96.736 155.864 96.608C157.741 96.48 160.067 96.3307 162.84 96.16V104.8Z" fill="#262626"/>
<path d="M178.528 72.16C182.666 71.3067 186.293 70.88 189.408 70.88H192.287C195.189 70.88 197.514 71.7547 199.264 73.504C201.013 75.2533 201.888 77.5787 201.888 80.48V105.44H190.688V81.76C190.688 81.12 190.474 80.5867 190.048 80.16C189.621 79.7333 189.088 79.52 188.448 79.52H186.208C184.586 79.52 183.093 79.6053 181.728 79.776C180.405 79.9467 179.338 80.0747 178.528 80.16V105.44H167.327V60.64H178.528V72.16Z" fill="#262626"/>
<path d="M220.76 78.88C219.053 78.88 218.2 79.7333 218.2 81.44V84.96H229.08V81.44C229.08 79.7333 228.227 78.88 226.52 78.88H220.76ZM239 104.8C230.765 105.653 223.299 106.08 216.6 106.08C213.699 106.08 211.373 105.205 209.624 103.456C207.875 101.707 207 99.3813 207 96.48V81.12C207 77.92 207.896 75.424 209.688 73.632C211.523 71.7973 214.04 70.88 217.24 70.88H230.04C233.24 70.88 235.736 71.7973 237.528 73.632C239.363 75.424 240.28 77.92 240.28 81.12V92.96H218.2V95.52C218.2 96.16 218.413 96.6933 218.84 97.12C219.267 97.5467 219.8 97.76 220.44 97.76C224.664 97.76 230.851 97.44 239 96.8V104.8Z" fill="#262626"/>
<path d="M268.735 70.88C272.191 70.88 274.858 72.16 276.735 74.72C278.698 73.3973 280.81 72.4373 283.071 71.84C285.375 71.2 287.423 70.88 289.215 70.88H289.855C292.756 70.88 295.082 71.7547 296.831 73.504C298.58 75.2533 299.455 77.5787 299.455 80.48V105.44H288.255V82.4C288.255 81.76 288.042 81.2267 287.615 80.8C287.188 80.3733 286.655 80.16 286.015 80.16H285.695C283.775 80.16 281.322 80.5867 278.335 81.44V105.44H267.135V82.4C267.135 81.76 266.922 81.2267 266.495 80.8C266.068 80.3733 265.535 80.16 264.895 80.16H264.575C262.655 80.16 260.202 80.5867 257.215 81.44V105.44H246.015V71.52H255.935L256.575 74.72C258.58 73.3973 260.628 72.4373 262.719 71.84C264.852 71.2 266.644 70.88 268.095 70.88H268.735Z" fill="#262626"/>
<path d="M339.762 95.84C339.762 99.04 338.845 101.557 337.01 103.392C335.218 105.184 332.723 106.08 329.523 106.08H314.803C311.603 106.08 309.085 105.184 307.251 103.392C305.459 101.557 304.562 99.04 304.562 95.84V81.12C304.562 77.92 305.459 75.424 307.251 73.632C309.085 71.7973 311.603 70.88 314.803 70.88H329.523C332.723 70.88 335.218 71.7973 337.01 73.632C338.845 75.424 339.762 77.92 339.762 81.12V95.84ZM328.562 82.08C328.562 80.3733 327.709 79.52 326.003 79.52H318.322C316.616 79.52 315.762 80.3733 315.762 82.08V94.88C315.762 96.5867 316.616 97.44 318.322 97.44H326.003C327.709 97.44 328.562 96.5867 328.562 94.88V82.08Z" fill="#262626"/>
<path d="M364.395 80.16C362.134 80.16 359.574 80.5867 356.715 81.44V105.44H345.515V71.52H355.435L356.075 74.72C358.08 73.3973 360.128 72.4373 362.219 71.84C364.352 71.2 366.144 70.88 367.595 70.88H370.475C373.376 70.88 375.702 71.7547 377.451 73.504C379.2 75.2533 380.075 77.5787 380.075 80.48V105.44H368.875V82.4C368.875 81.76 368.662 81.2267 368.235 80.8C367.808 80.3733 367.275 80.16 366.635 80.16H364.395Z" fill="#262626"/>
<path d="M399.908 72.8V105.44H388.707V81.44H383.908V72.8H399.908ZM388.707 60H399.908V68.96H388.707V60Z" fill="#262626"/>
<path d="M417.527 92V105.44H406.328V60.64H417.527V83.36H422.647L429.688 71.52H441.527L431.927 87.84L441.527 105.44H429.688L422.328 92H417.527Z" fill="#262626"/>
<path d="M458.142 97.12C460.404 97.12 462.964 96.6933 465.823 95.84V92H456.543C455.903 92 455.369 92.2133 454.943 92.64C454.516 93.0667 454.302 93.6 454.302 94.24V94.88C454.302 95.52 454.516 96.0533 454.943 96.48C455.369 96.9067 455.903 97.12 456.543 97.12H458.142ZM446.302 72.16C454.11 71.3067 461.151 70.88 467.423 70.88C470.324 70.88 472.649 71.7547 474.398 73.504C476.148 75.2533 477.022 77.5787 477.022 80.48V105.44H467.103L466.462 102.24C464.457 103.563 462.388 104.544 460.254 105.184C458.164 105.781 456.393 106.08 454.943 106.08H452.703C449.801 106.08 447.476 105.205 445.727 103.456C443.977 101.707 443.103 99.3813 443.103 96.48V93.6C443.103 90.6987 443.977 88.3733 445.727 86.624C447.476 84.8747 449.801 84 452.703 84H465.823V81.44C465.823 80.8 465.609 80.2667 465.182 79.84C464.756 79.4133 464.222 79.2 463.582 79.2C460.809 79.2 457.737 79.328 454.366 79.584C451.038 79.84 448.35 80.032 446.302 80.16V72.16Z" fill="#262626"/>
<defs>
<linearGradient id="paint0_linear_212_0" x1="12.3775" y1="75.1452" x2="107.959" y2="75.1452" gradientUnits="userSpaceOnUse">
<stop stop-color="#8CC63F"/>
<stop offset="1" stop-color="#219653"/>
</linearGradient>
<linearGradient id="paint1_linear_212_0" x1="2145.82" y1="7379.98" x2="4762.34" y2="7379.98" gradientUnits="userSpaceOnUse">
<stop stop-color="#0CA54D"/>
<stop offset="1" stop-color="#219653"/>
</linearGradient>
</defs>
</svg>
