<svg width="488" height="156" viewBox="0 0 488 156" fill="none" xmlns="http://www.w3.org/2000/svg">
<path d="M84.592 44.2338V12.0354C84.5899 11.4754 84.3642 10.9389 83.964 10.543C83.5638 10.147 83.0215 9.92362 82.4555 9.92157H39.4185C38.8533 9.92363 38.3119 10.1472 37.9129 10.5434C37.5139 10.9396 37.2899 11.4761 37.2899 12.0354V43.3524C37.2886 43.7229 37.1888 44.0865 37.0006 44.4069C36.8124 44.7272 36.5425 44.993 36.2177 45.1776L13.4418 58.188C13.1109 58.3768 12.8376 58.6503 12.6503 58.9796C12.463 59.309 12.3688 59.6822 12.3775 60.06V112.219C12.3756 112.589 12.4732 112.953 12.6602 113.274C12.8472 113.594 13.1169 113.86 13.4418 114.044L59.1277 140.088C59.453 140.272 59.8213 140.369 60.196 140.369C60.5707 140.369 60.9389 140.272 61.2642 140.088L106.927 114.005C107.25 113.82 107.519 113.554 107.706 113.233C107.893 112.913 107.991 112.549 107.991 112.18V60.06C107.991 59.6891 107.893 59.3246 107.706 59.003C107.519 58.6814 107.25 58.4138 106.927 58.227L85.6563 46.059C85.3325 45.874 85.0637 45.6079 84.8769 45.2875C84.69 44.9671 84.5918 44.6037 84.592 44.2338ZM100.068 110.105L61.2327 132.288C60.9074 132.472 60.5391 132.569 60.1644 132.569C59.7897 132.569 59.4215 132.472 59.0962 132.288L20.2691 110.105C19.9442 109.921 19.6745 109.655 19.4875 109.335C19.3005 109.014 19.2029 108.65 19.2048 108.28V63.96C19.2031 63.5887 19.3007 63.2237 19.4876 62.9018C19.6745 62.5799 19.9441 62.3126 20.2691 62.127L43.3131 48.9216C43.6389 48.7382 43.9097 48.4727 44.0981 48.1521C44.2864 47.8315 44.3855 47.4672 44.3852 47.0964V19.7964C44.3832 19.5185 44.4367 19.243 44.5427 18.9856C44.6488 18.7283 44.8052 18.4943 45.0031 18.2971C45.201 18.0999 45.4363 17.9434 45.6956 17.8366C45.9549 17.7297 46.233 17.6748 46.5138 17.6748H73.7835C74.3488 17.6748 74.891 17.8964 75.2914 18.2911C75.6919 18.6859 75.9179 19.2215 75.92 19.7808V47.0808C75.9191 47.4518 76.0171 47.8166 76.2039 48.1384C76.3907 48.4601 76.6599 48.7275 76.9843 48.9138V48.9138L100.068 62.088C100.397 62.2781 100.67 62.5518 100.857 62.8809C101.044 63.21 101.139 63.5825 101.132 63.96V108.319C101.125 108.682 101.024 109.037 100.837 109.35C100.651 109.663 100.386 109.923 100.068 110.105V110.105Z" fill="url(#paint0_linear_654_481)"/>
<path d="M169.231 104.239C159.86 105.066 152.081 105.482 145.895 105.487C141.775 105.487 138.748 104.53 136.813 102.617C134.879 100.703 133.912 97.6976 133.912 93.6V73.6632C133.912 69.2952 134.911 66.1232 136.908 64.1472C138.905 62.1712 142.111 61.1832 146.526 61.1832H169.231V69.9192H149.049C146.526 69.9192 145.265 71.1672 145.265 73.6632V93.6C145.246 94.0167 145.311 94.4329 145.457 94.8241C145.604 95.2154 145.828 95.5736 146.116 95.8776C146.402 96.1573 146.742 96.3763 147.116 96.5212C147.49 96.666 147.89 96.7337 148.292 96.72C149.175 96.72 150.145 96.72 151.193 96.72L154.473 96.6264L157.91 96.5016C159.069 96.4548 160.559 96.3768 162.388 96.252C164.217 96.1272 166.495 95.979 169.231 95.8152V104.239Z" fill="white"/>
<path d="M184.683 72.4152C188.206 71.6445 191.798 71.2264 195.405 71.1672H198.243C199.507 71.0845 200.775 71.2699 201.96 71.711C203.146 72.1521 204.223 72.8388 205.118 73.725C206.014 74.6113 206.708 75.6766 207.154 76.8497C207.6 78.0228 207.787 79.2766 207.704 80.5272V104.863H196.667V81.7752C196.674 81.4864 196.622 81.1991 196.514 80.9308C196.405 80.6626 196.243 80.4191 196.036 80.2152C195.831 80.009 195.585 79.847 195.314 79.7396C195.042 79.6322 194.751 79.5817 194.459 79.5912H192.252C190.787 79.5808 189.322 79.6642 187.868 79.8408C186.544 80.0046 185.503 80.1294 184.715 80.2152V104.863H173.678V61.1832H184.715L184.683 72.4152Z" fill="white"/>
<path d="M244.284 104.239C236.952 105.025 229.584 105.442 222.209 105.487C220.945 105.57 219.678 105.385 218.492 104.943C217.307 104.502 216.23 103.816 215.334 102.929C214.438 102.043 213.744 100.978 213.299 99.8047C212.853 98.6316 212.665 97.3778 212.749 96.1272V81.12C212.749 78 213.642 75.556 215.429 73.788C217.216 72.02 219.687 71.136 222.84 71.136H235.454C238.607 71.136 241.078 72.02 242.865 73.788C244.652 75.556 245.545 78 245.545 81.12V92.664H223.786V95.16C223.778 95.4488 223.83 95.7362 223.939 96.0046C224.047 96.2729 224.209 96.5167 224.416 96.721C224.622 96.9253 224.869 97.0859 225.14 97.193C225.411 97.3001 225.702 97.3515 225.994 97.344C230.156 97.344 236.253 97.032 244.284 96.408V104.239ZM226.309 78.9672C224.622 78.9672 223.786 79.794 223.786 81.4632V84.8952H234.508V81.4632C234.508 79.794 233.664 78.9672 231.985 78.9672H226.309Z" fill="white"/>
<path d="M273.611 71.1672C275.136 71.0951 276.655 71.3996 278.031 72.0532C279.407 72.7068 280.598 73.689 281.495 74.9112C283.421 73.6207 285.553 72.6608 287.802 72.072C289.76 71.5084 291.786 71.2042 293.825 71.1672H294.455C295.719 71.0845 296.987 71.2699 298.172 71.711C299.358 72.1521 300.435 72.8388 301.331 73.725C302.226 74.6112 302.92 75.6766 303.366 76.8497C303.812 78.0228 304 79.2766 303.916 80.5272V104.863H292.879V82.3992C292.886 82.1103 292.834 81.823 292.726 81.5546C292.618 81.2862 292.456 81.0425 292.249 80.8382C292.043 80.6338 291.796 80.4732 291.525 80.3661C291.254 80.259 290.963 80.2077 290.671 80.2152H290.356C287.893 80.3072 285.453 80.727 283.103 81.4632V104.863H272.066V82.3992C272.073 82.1103 272.021 81.823 271.913 81.5546C271.805 81.2862 271.643 81.0425 271.436 80.8382C271.23 80.6338 270.983 80.4732 270.712 80.3661C270.441 80.259 270.15 80.2077 269.858 80.2152H269.543C267.08 80.3072 264.64 80.727 262.29 81.4632V104.863H251.253V71.76H261.029L261.659 74.88C263.531 73.6339 265.583 72.6765 267.746 72.0408C269.45 71.4967 271.222 71.1921 273.012 71.136L273.611 71.1672Z" fill="white"/>
<path d="M343.618 95.5032C343.618 98.6232 342.725 101.067 340.938 102.835C339.151 104.603 336.68 105.487 333.527 105.487H319.021C315.868 105.487 313.397 104.603 311.61 102.835C309.823 101.067 308.93 98.6232 308.93 95.5032V81.12C308.93 78 309.823 75.556 311.61 73.788C313.397 72.02 315.868 71.136 319.021 71.136H333.527C336.68 71.136 339.151 72.02 340.938 73.788C342.725 75.556 343.618 78 343.618 81.12V95.5032ZM332.581 82.0872C332.581 80.418 331.737 79.5912 330.058 79.5912H322.49C320.803 79.5912 319.967 80.418 319.967 82.0872V94.5672C319.967 96.2286 320.803 97.0632 322.49 97.0632H330.058C331.735 97.0632 332.576 96.2312 332.581 94.5672V82.0872Z" fill="white"/>
<path d="M367.9 80.2152C365.33 80.268 362.781 80.6884 360.332 81.4632V104.863H349.295V71.76H359.07L359.701 74.88C361.58 73.6434 363.637 72.6966 365.803 72.072C367.507 71.5279 369.28 71.2233 371.069 71.1672H373.908C375.172 71.0845 376.439 71.2699 377.625 71.711C378.81 72.1521 379.887 72.8388 380.783 73.725C381.678 74.6112 382.373 75.6766 382.818 76.8497C383.264 78.0228 383.452 79.2766 383.368 80.5272V104.863H372.331V82.3992C372.338 82.1103 372.286 81.823 372.178 81.5546C372.07 81.2863 371.908 81.0425 371.701 80.8382C371.495 80.6339 371.248 80.4733 370.977 80.3662C370.706 80.2591 370.415 80.2077 370.123 80.2152H367.9Z" fill="white"/>
<path d="M402.896 73.0392V104.863H391.859V81.4632H387.129V73.0392H402.896ZM391.859 60.5592H402.896V69.2952H391.859V60.5592Z" fill="white"/>
<path d="M438.845 104.239C431.934 105.013 424.987 105.43 418.032 105.487C416.768 105.57 415.501 105.385 414.315 104.943C413.13 104.502 412.053 103.816 411.157 102.929C410.262 102.043 409.567 100.978 409.122 99.8047C408.676 98.6316 408.488 97.3778 408.572 96.1272V81.7752C408.572 78.6552 409.466 76.2112 411.252 74.4432C413.039 72.6752 415.51 71.7912 418.663 71.7912H438.845V80.2152H422.132C420.453 80.2152 419.609 81.042 419.609 82.7112V94.8792C419.602 95.168 419.653 95.4554 419.762 95.7238C419.87 95.9921 420.032 96.2359 420.239 96.4402C420.445 96.6445 420.692 96.8051 420.963 96.9122C421.234 97.0193 421.525 97.0707 421.817 97.0632C425.601 97.0632 431.277 96.7512 438.845 96.1272V104.239Z" fill="white"/>
<path d="M445.468 72.4152C452.377 71.6278 459.325 71.2112 466.281 71.1672C467.545 71.0845 468.812 71.2699 469.998 71.711C471.183 72.1521 472.26 72.8388 473.156 73.725C474.052 74.6112 474.746 75.6766 475.191 76.8497C475.637 78.0228 475.825 79.2766 475.741 80.5272V104.863H465.965L465.335 101.743C463.459 102.983 461.408 103.94 459.248 104.582C457.544 105.123 455.771 105.427 453.982 105.487H451.775C450.511 105.57 449.243 105.385 448.058 104.943C446.872 104.502 445.795 103.816 444.899 102.929C444.004 102.043 443.31 100.978 442.864 99.8047C442.418 98.6316 442.231 97.3778 442.314 96.1272V93.3192C442.231 92.0686 442.418 90.8148 442.864 89.6417C443.31 88.4686 444.004 87.4032 444.899 86.517C445.795 85.6308 446.872 84.9441 448.058 84.503C449.243 84.0619 450.511 83.8765 451.775 83.9592H464.704V81.4632C464.711 81.1743 464.66 80.887 464.551 80.6186C464.443 80.3503 464.281 80.1065 464.074 79.9022C463.868 79.6978 463.621 79.5372 463.35 79.4301C463.079 79.323 462.788 79.2717 462.496 79.2792C459.769 79.2792 456.752 79.404 453.446 79.6536C450.151 79.9032 447.486 80.0904 445.468 80.2152V72.4152ZM457.136 96.7512C459.706 96.6945 462.254 96.2742 464.704 95.5032V91.7592H455.559C455.267 91.7517 454.976 91.803 454.705 91.9101C454.434 92.0172 454.188 92.1778 453.981 92.3822C453.775 92.5865 453.612 92.8302 453.504 93.0986C453.396 93.367 453.344 93.6543 453.351 93.9432V94.5672C453.344 94.856 453.396 95.1434 453.504 95.4118C453.612 95.6801 453.775 95.9239 453.981 96.1282C454.188 96.3325 454.434 96.4931 454.705 96.6002C454.976 96.7073 455.267 96.7587 455.559 96.7512H457.136Z" fill="white"/>
<path d="M82.03 86.5176L77.8595 82.3914L62.7307 97.3596V72.0252L74.4774 60.411L70.2991 56.2848L62.7307 63.7728V51.8544H56.8337V84.8484L40.7826 68.9676L36.6121 73.1016L56.8337 93.1086V118.833H62.7307V105.62L82.03 86.5176Z" fill="url(#paint1_linear_654_481)"/>
<defs>
<linearGradient id="paint0_linear_654_481" x1="12.3775" y1="75.1452" x2="107.959" y2="75.1452" gradientUnits="userSpaceOnUse">
<stop stop-color="#8CC63F"/>
<stop offset="1" stop-color="#219653"/>
</linearGradient>
<linearGradient id="paint1_linear_654_481" x1="2145.82" y1="7379.98" x2="4762.34" y2="7379.98" gradientUnits="userSpaceOnUse">
<stop stop-color="#0CA54D"/>
<stop offset="1" stop-color="#219653"/>
</linearGradient>
</defs>
</svg>
