<svg width="20" height="20" viewBox="0 0 20 20" fill="none" xmlns="http://www.w3.org/2000/svg">
<path d="M17.4582 10.9603C17.2382 10.9603 17.0082 10.8903 16.7882 10.8403C16.3427 10.7421 15.9048 10.6118 15.4782 10.4503C15.0143 10.2815 14.5043 10.2903 14.0465 10.4749C13.5886 10.6595 13.2153 11.007 12.9982 11.4503L12.7782 11.9003C11.8042 11.3585 10.9092 10.6855 10.1182 9.90032C9.33294 9.10933 8.65999 8.21431 8.11817 7.24032L8.53817 6.96032C8.98153 6.74323 9.32895 6.36985 9.51356 5.91201C9.69817 5.45417 9.70694 4.94423 9.53817 4.48032C9.37939 4.05274 9.2491 3.61512 9.14817 3.17032C9.09817 2.95032 9.05817 2.72032 9.02817 2.49032C8.90673 1.78594 8.53779 1.14806 7.98779 0.691557C7.43779 0.235054 6.74286 -0.0100738 6.02817 0.000317303H3.02817C2.5972 -0.00372924 2.17042 0.0851307 1.77688 0.260848C1.38334 0.436565 1.03228 0.695013 0.747598 1.0186C0.462918 1.34219 0.251302 1.72331 0.127155 2.13603C0.00300869 2.54875 -0.0307535 2.98338 0.0281672 3.41032C0.560905 7.5997 2.4742 11.4922 5.46582 14.473C8.45744 17.4537 12.3569 19.3528 16.5482 19.8703H16.9282C17.6656 19.8714 18.3776 19.6008 18.9282 19.1103C19.2445 18.8274 19.4973 18.4805 19.6696 18.0926C19.842 17.7048 19.9301 17.2848 19.9282 16.8603V13.8603C19.9159 13.1657 19.663 12.4969 19.2125 11.968C18.762 11.4391 18.142 11.0829 17.4582 10.9603ZM17.9582 16.9603C17.958 17.1023 17.9276 17.2426 17.8689 17.3719C17.8103 17.5013 17.7248 17.6166 17.6182 17.7103C17.5064 17.8068 17.3758 17.8789 17.2346 17.9219C17.0934 17.965 16.9447 17.978 16.7982 17.9603C13.0531 17.4801 9.5744 15.7668 6.91088 13.0906C4.24736 10.4144 2.55058 6.92765 2.08817 3.18032C2.07225 3.03384 2.0862 2.88565 2.12917 2.74471C2.17214 2.60377 2.24324 2.473 2.33817 2.36032C2.43188 2.25365 2.54723 2.16816 2.67655 2.10953C2.80586 2.05091 2.94618 2.0205 3.08817 2.02032H6.08817C6.32071 2.01514 6.54779 2.0912 6.73031 2.23539C6.91283 2.37958 7.03938 2.58289 7.08817 2.81032C7.12817 3.08365 7.17817 3.35365 7.23817 3.62032C7.35369 4.14746 7.50743 4.6655 7.69817 5.17032L6.29817 5.82032C6.17846 5.87524 6.07079 5.95326 5.98132 6.04991C5.89186 6.14656 5.82237 6.25993 5.77684 6.38351C5.73131 6.50709 5.71064 6.63845 5.71601 6.77004C5.72139 6.90163 5.75271 7.03086 5.80817 7.15032C7.24737 10.2331 9.72541 12.7111 12.8082 14.1503C13.0516 14.2503 13.3247 14.2503 13.5682 14.1503C13.6929 14.1057 13.8075 14.0368 13.9053 13.9475C14.0032 13.8582 14.0823 13.7504 14.1382 13.6303L14.7582 12.2303C15.2751 12.4152 15.8028 12.5688 16.3382 12.6903C16.6048 12.7503 16.8748 12.8003 17.1482 12.8403C17.3756 12.8891 17.5789 13.0157 17.7231 13.1982C17.8673 13.3807 17.9433 13.6078 17.9382 13.8403L17.9582 16.9603Z" fill="#263640"/>
</svg>
