<svg width="24" height="24" viewBox="0 0 24 24" fill="none" xmlns="http://www.w3.org/2000/svg">
<path d="M15.14 11.813C14.7393 11.5557 14.3044 11.3561 13.848 11.22C13.568 11.135 13.258 11.052 12.938 10.973C12.658 10.895 12.326 10.815 11.916 10.725C11.4267 10.6224 10.9465 10.4806 10.48 10.301C10.2396 10.2076 10.0274 10.0536 9.86401 9.85401C9.74446 9.69067 9.68766 9.48977 9.70401 9.28801C9.70365 9.07168 9.77583 8.86148 9.90901 8.69101C10.0954 8.47267 10.3372 8.30859 10.609 8.21601C11.0661 8.05894 11.5479 7.98577 12.031 8.00001C12.4049 7.99381 12.7776 8.04301 13.137 8.14601C13.3754 8.21308 13.5999 8.32212 13.8 8.46801C13.9294 8.56036 14.0398 8.67683 14.125 8.81101C14.1868 8.92755 14.2709 9.03071 14.3727 9.11458C14.4745 9.19845 14.5919 9.26135 14.718 9.29968C14.8442 9.338 14.9767 9.35099 15.108 9.33789C15.2392 9.32479 15.3665 9.28587 15.4827 9.22336C15.5988 9.16084 15.7014 9.07598 15.7846 8.97365C15.8678 8.87132 15.9299 8.75355 15.9674 8.62711C16.0049 8.50068 16.017 8.36807 16.003 8.23693C15.9891 8.1058 15.9493 7.97872 15.886 7.86301C15.6751 7.49003 15.3903 7.16404 15.049 6.90501C14.6547 6.60208 14.2074 6.37522 13.73 6.23601C13.1789 6.0732 12.6066 5.99366 12.032 6.00001C11.3016 5.98429 10.5745 6.10293 9.88701 6.35001C9.26524 6.57636 8.71905 6.97189 8.31001 7.49201C7.91824 8.00919 7.70615 8.6402 7.70601 9.28901C7.68979 9.93494 7.89439 10.5671 8.28601 11.081C8.6641 11.5572 9.1597 11.9267 9.72401 12.153C10.1504 12.3171 10.587 12.4534 11.031 12.561C11.039 12.564 11.045 12.571 11.053 12.573C11.245 12.631 11.551 12.708 11.993 12.803C12.166 12.841 12.328 12.882 12.49 12.923C12.506 12.927 12.529 12.932 12.544 12.937L12.562 12.939C12.81 13.003 13.049 13.068 13.268 13.135C13.5371 13.2137 13.7939 13.3295 14.031 13.479C14.1789 13.5719 14.3032 13.6979 14.394 13.847C14.4819 14.029 14.5225 14.2302 14.512 14.432C14.5259 14.6932 14.4504 14.9514 14.298 15.164C14.0922 15.4318 13.8139 15.6349 13.496 15.749C13.0223 15.9319 12.5166 16.0176 12.009 16.001C11.4221 16.0236 10.8382 15.9056 10.306 15.657C10.0602 15.5261 9.84907 15.3386 9.69001 15.11C9.57837 14.9637 9.50855 14.7899 9.48801 14.607C9.48801 14.3418 9.38266 14.0874 9.19512 13.8999C9.00758 13.7124 8.75323 13.607 8.48801 13.607C8.2228 13.607 7.96844 13.7124 7.78091 13.8999C7.59337 14.0874 7.48801 14.3418 7.48801 14.607C7.5045 15.1971 7.69824 15.7686 8.04401 16.247C8.38958 16.7447 8.84989 17.1518 9.38601 17.434C10.2017 17.832 11.1017 18.0266 12.009 18.001C12.78 18.0197 13.5468 17.8819 14.263 17.596C14.9288 17.3405 15.5069 16.8986 15.928 16.323C16.3283 15.7623 16.5335 15.0856 16.512 14.397C16.5213 13.8632 16.3921 13.3361 16.137 12.867C15.8906 12.4436 15.5494 12.0831 15.14 11.814V11.813ZM22.361 13.691C22.6306 12.0476 22.5051 10.3636 21.9949 8.77831C21.4846 7.19301 20.6043 5.75197 19.4267 4.57437C18.2491 3.39676 16.808 2.51643 15.2227 2.00617C13.6374 1.49592 11.9534 1.3704 10.31 1.64001C9.09663 1.05823 7.73257 0.867444 6.40612 1.09398C5.07968 1.32052 3.85626 1.95322 2.90474 2.90474C1.95322 3.85626 1.32052 5.07968 1.09398 6.40612C0.867444 7.73257 1.05823 9.09663 1.64001 10.31C1.37063 11.9533 1.49627 13.637 2.00655 15.2221C2.51684 16.8072 3.3971 18.248 4.57456 19.4255C5.75203 20.6029 7.19286 21.4832 8.77793 21.9935C10.363 22.5038 12.0468 22.6294 13.69 22.36C14.9034 22.9418 16.2675 23.1326 17.5939 22.906C18.9203 22.6795 20.1438 22.0468 21.0953 21.0953C22.0468 20.1438 22.6795 18.9203 22.906 17.5939C23.1326 16.2675 22.9418 14.9034 22.36 13.69L22.361 13.691ZM16.5 21C15.7412 20.9997 14.9948 20.8078 14.33 20.442C14.1238 20.3284 13.8841 20.2909 13.653 20.336C12.4206 20.5818 11.149 20.551 9.92986 20.2459C8.71077 19.9407 7.57461 19.3687 6.60333 18.5713C5.63206 17.7738 4.84988 16.7707 4.31323 15.6344C3.77658 14.498 3.49883 13.2567 3.50001 12C3.50104 11.4447 3.55597 10.8907 3.66401 10.346C3.70925 10.1149 3.67173 9.87524 3.55801 9.66901C3.08847 8.81501 2.90886 7.83165 3.0462 6.8668C3.18353 5.90195 3.63039 5.00777 4.31957 4.3187C5.00876 3.62962 5.90302 3.18292 6.86789 3.04574C7.83276 2.90856 8.81609 3.08833 9.67001 3.55801C9.87644 3.67221 10.1166 3.70976 10.348 3.66401C11.5804 3.41837 12.8519 3.44929 14.0709 3.75454C15.2898 4.05979 16.4259 4.63176 17.397 5.4292C18.3682 6.22663 19.1502 7.22966 19.6868 8.36594C20.2234 9.50221 20.5012 10.7434 20.5 12C20.499 12.5554 20.4441 13.1093 20.336 13.654C20.2908 13.8851 20.3283 14.1248 20.442 14.331C20.8192 15.0161 21.0113 15.7877 20.9994 16.5697C20.9875 17.3517 20.7719 18.1171 20.3739 18.7903C19.976 19.4636 19.4094 20.0215 18.73 20.409C18.0507 20.7965 17.2821 21.0002 16.5 21Z" fill="#219653"/>
</svg>
