<svg width="22" height="22" viewBox="0 0 22 22" fill="none" xmlns="http://www.w3.org/2000/svg">
<path d="M21.265 1.4279C20.9803 1.19106 20.6367 1.03585 20.2708 0.978796C19.9048 0.921742 19.5303 0.964978 19.187 1.1039L1.266 8.3389C0.882849 8.4966 0.556707 8.76707 0.330839 9.11442C0.104972 9.46177 -0.00994428 9.86959 0.00133764 10.2838C0.0126196 10.6979 0.149566 11.0989 0.394008 11.4334C0.63845 11.768 0.978832 12.0203 1.37 12.1569L4.995 13.4179L7.015 20.0999C7.04268 20.1891 7.08274 20.2739 7.134 20.3519C7.14199 20.3639 7.153 20.3719 7.161 20.3849C7.21993 20.4669 7.29109 20.5394 7.37199 20.5999C7.39458 20.6176 7.41794 20.6343 7.442 20.6499C7.53672 20.7128 7.64159 20.7588 7.752 20.7859L7.765 20.7869L7.771 20.7899C7.83783 20.8033 7.90583 20.81 7.974 20.8099L7.99199 20.8069C8.09441 20.8052 8.19594 20.7877 8.293 20.7549C8.316 20.7469 8.335 20.7349 8.357 20.7249C8.42959 20.6951 8.49841 20.6569 8.562 20.6109C8.61265 20.5679 8.66331 20.5249 8.71399 20.4819L11.416 17.4989L15.446 20.6209C15.8007 20.8972 16.2374 21.0474 16.687 21.0479C17.1582 21.0474 17.615 20.8848 17.9806 20.5875C18.3462 20.2901 18.5984 19.8761 18.695 19.4149L21.958 3.3979C22.0318 3.03756 22.0063 2.66394 21.8842 2.31696C21.7622 1.96998 21.5481 1.66268 21.265 1.4279ZM8.37 13.7359C8.2315 13.8741 8.13688 14.0501 8.09799 14.2419L7.788 15.7459L7.00399 13.1529L11.069 11.0359L8.37 13.7359ZM16.672 19.0399L11.909 15.3499C11.7097 15.1961 11.4598 15.1231 11.209 15.1453C10.9583 15.1675 10.7251 15.2834 10.556 15.4699L9.68999 16.4249L9.996 14.9379L17.079 7.8549C17.2471 7.68582 17.3492 7.46226 17.3669 7.22452C17.3847 6.98679 17.317 6.75053 17.1759 6.55833C17.0349 6.36613 16.8298 6.23064 16.5977 6.17629C16.3656 6.12194 16.1217 6.1523 15.91 6.2619L5.745 11.5539L2.02 10.1909L19.999 2.9999L16.672 19.0399Z" fill="#219653"/>
</svg>
