<svg width="20" height="20" viewBox="0 0 20 20" fill="none" xmlns="http://www.w3.org/2000/svg">
<path d="M10 0.25C4.624 0.25 0.25 4.624 0.25 10C0.25 15.376 4.624 19.75 10 19.75C15.376 19.75 19.75 15.376 19.75 10C19.75 4.624 15.376 0.25 10 0.25ZM10 1.75C14.5645 1.75 18.25 5.4355 18.25 10C18.25 14.5645 14.5645 18.25 10 18.25C5.4355 18.25 1.75 14.5645 1.75 10C1.75 5.4355 5.4355 1.75 10 1.75ZM7.16425 6.08575L6.085 7.165L8.9215 10L6.0865 12.8358L7.16425 13.9142L10 11.0778L12.8358 13.9142L13.9142 12.8358L11.0778 10L13.9142 7.16425L12.8358 6.08575L10 8.9215L7.16425 6.08575Z" fill="#EB5757"/>
</svg>
