<svg width="18" height="18" viewBox="0 0 18 18" fill="none" xmlns="http://www.w3.org/2000/svg">
<path d="M15.75 0.0232109C15.1755 0.0232109 14.613 0.245961 14.1795 0.679461L6.75 8.08571L6.58575 8.24996L6.53925 8.48471L6.02325 11.1097L5.78925 12.2107L6.891 11.9767L9.516 11.4607L9.75 11.4142L9.91425 11.25L17.3205 3.82046C17.6309 3.50926 17.8422 3.11312 17.9278 2.68199C18.0134 2.25086 17.9695 1.80403 17.8015 1.39784C17.6336 0.99165 17.3491 0.644277 16.984 0.399514C16.6189 0.15475 16.1895 0.0235529 15.75 0.0224609V0.0232109ZM15.75 1.47671C15.9255 1.47671 16.0987 1.56671 16.266 1.73396C16.5997 2.06846 16.5997 2.43146 16.266 2.76521L9 10.032L7.71075 10.29L7.96875 9.00071L15.2347 1.73471C15.4012 1.56821 15.5745 1.47746 15.75 1.47746V1.47671ZM0 2.99996V18H15V8.10896L13.5 9.60896V16.5H1.5V4.49996H8.391L9.891 2.99996H0Z" fill="#263640"/>
</svg>
