<svg width="488" height="156" viewBox="0 0 488 156" fill="none" xmlns="http://www.w3.org/2000/svg">
<path d="M84.592 44.2338V12.0354C84.5899 11.4754 84.3642 10.9389 83.964 10.543C83.5638 10.147 83.0215 9.92362 82.4555 9.92157H39.4185C38.8533 9.92363 38.3119 10.1472 37.9129 10.5434C37.5139 10.9396 37.2899 11.4761 37.2899 12.0354V43.3524C37.2886 43.7229 37.1888 44.0865 37.0006 44.4069C36.8124 44.7272 36.5425 44.993 36.2177 45.1776L13.4418 58.188C13.1109 58.3768 12.8376 58.6503 12.6503 58.9796C12.463 59.309 12.3688 59.6822 12.3775 60.06V112.219C12.3756 112.589 12.4732 112.953 12.6602 113.274C12.8472 113.594 13.1169 113.86 13.4418 114.044L59.1277 140.088C59.453 140.272 59.8213 140.369 60.196 140.369C60.5707 140.369 60.9389 140.272 61.2642 140.088L106.927 114.005C107.25 113.82 107.519 113.554 107.706 113.233C107.893 112.913 107.991 112.549 107.991 112.18V60.06C107.991 59.6891 107.893 59.3246 107.706 59.003C107.519 58.6814 107.25 58.4138 106.927 58.227L85.6563 46.059C85.3325 45.874 85.0637 45.6079 84.8769 45.2875C84.69 44.9671 84.5918 44.6037 84.592 44.2338ZM100.068 110.105L61.2327 132.288C60.9074 132.472 60.5391 132.569 60.1644 132.569C59.7897 132.569 59.4215 132.472 59.0962 132.288L20.2691 110.105C19.9442 109.921 19.6745 109.655 19.4875 109.335C19.3005 109.014 19.2029 108.65 19.2048 108.28V63.96C19.2031 63.5887 19.3007 63.2237 19.4876 62.9018C19.6745 62.5799 19.9441 62.3126 20.2691 62.127L43.3131 48.9216C43.6389 48.7382 43.9097 48.4727 44.0981 48.1521C44.2864 47.8315 44.3855 47.4672 44.3852 47.0964V19.7964C44.3832 19.5185 44.4367 19.243 44.5427 18.9856C44.6488 18.7283 44.8052 18.4943 45.0031 18.2971C45.201 18.0999 45.4363 17.9434 45.6956 17.8366C45.9549 17.7297 46.233 17.6748 46.5138 17.6748H73.7835C74.3488 17.6748 74.891 17.8964 75.2914 18.2911C75.6919 18.6859 75.9179 19.2215 75.92 19.7808V47.0808C75.9191 47.4518 76.0171 47.8166 76.2039 48.1384C76.3907 48.4601 76.6599 48.7275 76.9843 48.9138V48.9138L100.068 62.088C100.397 62.2781 100.67 62.5518 100.857 62.8809C101.044 63.21 101.139 63.5825 101.132 63.96V108.319C101.125 108.682 101.024 109.037 100.837 109.35C100.651 109.663 100.386 109.923 100.068 110.105V110.105Z" fill="url(#paint0_linear_851_591)"/>
<path d="M82.03 86.5176L77.8595 82.3914L62.7307 97.3596V72.0252L74.4774 60.411L70.2991 56.2848L62.7307 63.7728V51.8544H56.8337V84.8484L40.7826 68.9676L36.6121 73.1016L56.8337 93.1086V118.833H62.7307V105.62L82.03 86.5176Z" fill="url(#paint1_linear_851_591)"/>
<path d="M161.84 99.8C152.325 100.653 144.432 101.08 138.16 101.08C133.979 101.08 130.907 100.099 128.944 98.136C126.981 96.1733 126 93.1013 126 88.92V68.44C126 63.96 127.003 60.7173 129.008 58.712C131.056 56.664 134.32 55.64 138.8 55.64H161.84V64.6H141.36C138.8 64.6 137.52 65.88 137.52 68.44V88.92C137.52 89.9013 137.797 90.6907 138.352 91.288C138.949 91.8427 139.696 92.12 140.592 92.12C141.488 92.12 142.469 92.12 143.536 92.12C144.603 92.0773 145.712 92.0347 146.864 91.992C148.016 91.9493 149.168 91.9067 150.32 91.864C151.515 91.8213 153.029 91.736 154.864 91.608C156.741 91.48 159.067 91.3307 161.84 91.16V99.8Z" fill="white"/>
<path d="M177.528 67.16C181.666 66.3067 185.293 65.88 188.408 65.88H191.287C194.189 65.88 196.514 66.7547 198.264 68.504C200.013 70.2533 200.888 72.5787 200.888 75.48V100.44H189.688V76.76C189.688 76.12 189.474 75.5867 189.048 75.16C188.621 74.7333 188.088 74.52 187.448 74.52H185.208C183.586 74.52 182.093 74.6053 180.728 74.776C179.405 74.9467 178.338 75.0747 177.528 75.16V100.44H166.327V55.64H177.528V67.16Z" fill="white"/>
<path d="M219.76 73.88C218.053 73.88 217.2 74.7333 217.2 76.44V79.96H228.08V76.44C228.08 74.7333 227.227 73.88 225.52 73.88H219.76ZM238 99.8C229.765 100.653 222.299 101.08 215.6 101.08C212.699 101.08 210.373 100.205 208.624 98.456C206.875 96.7067 206 94.3813 206 91.48V76.12C206 72.92 206.896 70.424 208.688 68.632C210.523 66.7973 213.04 65.88 216.24 65.88H229.04C232.24 65.88 234.736 66.7973 236.528 68.632C238.363 70.424 239.28 72.92 239.28 76.12V87.96H217.2V90.52C217.2 91.16 217.413 91.6933 217.84 92.12C218.267 92.5467 218.8 92.76 219.44 92.76C223.664 92.76 229.851 92.44 238 91.8V99.8Z" fill="white"/>
<path d="M267.735 65.88C271.191 65.88 273.858 67.16 275.735 69.72C277.698 68.3973 279.81 67.4373 282.071 66.84C284.375 66.2 286.423 65.88 288.215 65.88H288.855C291.756 65.88 294.082 66.7547 295.831 68.504C297.58 70.2533 298.455 72.5787 298.455 75.48V100.44H287.255V77.4C287.255 76.76 287.042 76.2267 286.615 75.8C286.188 75.3733 285.655 75.16 285.015 75.16H284.695C282.775 75.16 280.322 75.5867 277.335 76.44V100.44H266.135V77.4C266.135 76.76 265.922 76.2267 265.495 75.8C265.068 75.3733 264.535 75.16 263.895 75.16H263.575C261.655 75.16 259.202 75.5867 256.215 76.44V100.44H245.015V66.52H254.935L255.575 69.72C257.58 68.3973 259.628 67.4373 261.719 66.84C263.852 66.2 265.644 65.88 267.095 65.88H267.735Z" fill="white"/>
<path d="M338.762 90.84C338.762 94.04 337.845 96.5573 336.01 98.392C334.218 100.184 331.723 101.08 328.523 101.08H313.803C310.603 101.08 308.085 100.184 306.251 98.392C304.459 96.5573 303.562 94.04 303.562 90.84V76.12C303.562 72.92 304.459 70.424 306.251 68.632C308.085 66.7973 310.603 65.88 313.803 65.88H328.523C331.723 65.88 334.218 66.7973 336.01 68.632C337.845 70.424 338.762 72.92 338.762 76.12V90.84ZM327.562 77.08C327.562 75.3733 326.709 74.52 325.003 74.52H317.322C315.616 74.52 314.762 75.3733 314.762 77.08V89.88C314.762 91.5867 315.616 92.44 317.322 92.44H325.003C326.709 92.44 327.562 91.5867 327.562 89.88V77.08Z" fill="white"/>
<path d="M363.395 75.16C361.134 75.16 358.574 75.5867 355.715 76.44V100.44H344.515V66.52H354.435L355.075 69.72C357.08 68.3973 359.128 67.4373 361.219 66.84C363.352 66.2 365.144 65.88 366.595 65.88H369.475C372.376 65.88 374.702 66.7547 376.451 68.504C378.2 70.2533 379.075 72.5787 379.075 75.48V100.44H367.875V77.4C367.875 76.76 367.662 76.2267 367.235 75.8C366.808 75.3733 366.275 75.16 365.635 75.16H363.395Z" fill="white"/>
<path d="M398.908 67.8V100.44H387.707V76.44H382.908V67.8H398.908ZM387.707 55H398.908V63.96H387.707V55Z" fill="white"/>
<path d="M416.527 87V100.44H405.328V55.64H416.527V78.36H421.647L428.688 66.52H440.527L430.927 82.84L440.527 100.44H428.688L421.328 87H416.527Z" fill="white"/>
<path d="M457.142 92.12C459.404 92.12 461.964 91.6933 464.823 90.84V87H455.543C454.903 87 454.369 87.2133 453.943 87.64C453.516 88.0667 453.302 88.6 453.302 89.24V89.88C453.302 90.52 453.516 91.0533 453.943 91.48C454.369 91.9067 454.903 92.12 455.543 92.12H457.142ZM445.302 67.16C453.11 66.3067 460.151 65.88 466.423 65.88C469.324 65.88 471.649 66.7547 473.398 68.504C475.148 70.2533 476.022 72.5787 476.022 75.48V100.44H466.103L465.462 97.24C463.457 98.5627 461.388 99.544 459.254 100.184C457.164 100.781 455.393 101.08 453.943 101.08H451.703C448.801 101.08 446.476 100.205 444.727 98.456C442.977 96.7067 442.103 94.3813 442.103 91.48V88.6C442.103 85.6987 442.977 83.3733 444.727 81.624C446.476 79.8747 448.801 79 451.703 79H464.823V76.44C464.823 75.8 464.609 75.2667 464.182 74.84C463.756 74.4133 463.222 74.2 462.582 74.2C459.809 74.2 456.737 74.328 453.366 74.584C450.038 74.84 447.35 75.032 445.302 75.16V67.16Z" fill="white"/>
<defs>
<linearGradient id="paint0_linear_851_591" x1="12.3775" y1="75.1452" x2="107.959" y2="75.1452" gradientUnits="userSpaceOnUse">
<stop stop-color="#8CC63F"/>
<stop offset="1" stop-color="#219653"/>
</linearGradient>
<linearGradient id="paint1_linear_851_591" x1="2145.82" y1="7379.98" x2="4762.34" y2="7379.98" gradientUnits="userSpaceOnUse">
<stop stop-color="#0CA54D"/>
<stop offset="1" stop-color="#219653"/>
</linearGradient>
</defs>
</svg>
