<svg width="184" height="59" viewBox="0 0 184 59" fill="none" xmlns="http://www.w3.org/2000/svg">
<path d="M31.8954 16.7295V4.55189C31.8946 4.3401 31.8095 4.13721 31.6586 3.98745C31.5077 3.8377 31.3032 3.75322 31.0898 3.75244H14.8628C14.6496 3.75322 14.4455 3.83779 14.2951 3.98764C14.1446 4.13748 14.0602 4.34037 14.0602 4.55189V16.3961C14.0597 16.5363 14.022 16.6738 13.9511 16.795C13.8801 16.9161 13.7783 17.0166 13.6559 17.0864L5.06825 22.007C4.9435 22.0785 4.84043 22.1819 4.76982 22.3065C4.69921 22.431 4.66368 22.5722 4.66696 22.715V42.4417C4.66626 42.5817 4.70304 42.7194 4.77355 42.8407C4.84405 42.962 4.94575 43.0625 5.06825 43.132L22.2941 52.982C22.4167 53.0516 22.5556 53.0882 22.6969 53.0882C22.8382 53.0882 22.977 53.0516 23.0997 52.982L40.3166 43.1172C40.4387 43.0473 40.54 42.9467 40.6105 42.8255C40.6809 42.7043 40.718 42.5668 40.7179 42.4269V22.715C40.7179 22.5748 40.6808 22.4369 40.6104 22.3153C40.54 22.1936 40.4387 22.0924 40.3166 22.0218L32.2967 17.4198C32.1746 17.3498 32.0732 17.2492 32.0028 17.128C31.9323 17.0068 31.8953 16.8694 31.8954 16.7295ZM37.7305 41.6422L23.0878 50.032C22.9651 50.1016 22.8263 50.1382 22.685 50.1382C22.5437 50.1382 22.4049 50.1016 22.2822 50.032L7.64246 41.6422C7.51997 41.5728 7.41827 41.4722 7.34776 41.3509C7.27726 41.2297 7.24047 41.092 7.24117 40.9519V24.19C7.24056 24.0496 7.27735 23.9116 7.34782 23.7898C7.4183 23.6681 7.51994 23.567 7.64246 23.4968L16.3312 18.5024C16.454 18.4331 16.5562 18.3327 16.6272 18.2114C16.6982 18.0902 16.7355 17.9524 16.7355 17.8121V7.48714C16.7347 7.38205 16.7548 7.27784 16.7948 7.18052C16.8348 7.0832 16.8938 6.9947 16.9684 6.92011C17.043 6.84552 17.1318 6.78633 17.2295 6.74593C17.3273 6.70553 17.4321 6.68474 17.538 6.68474H27.82C28.0332 6.68474 28.2376 6.76856 28.3886 6.91785C28.5396 7.06714 28.6248 7.26973 28.6256 7.48124V17.8062C28.6253 17.9466 28.6622 18.0845 28.7326 18.2062C28.8031 18.3279 28.9046 18.4291 29.0269 18.4995L37.7305 23.482C37.8548 23.5539 37.9575 23.6575 38.0281 23.7819C38.0986 23.9064 38.1344 24.0473 38.1318 24.19V40.9667C38.1293 41.1041 38.091 41.2385 38.0207 41.3569C37.9504 41.4752 37.8504 41.5736 37.7305 41.6422Z" fill="url(#paint0_linear)"/>
<path d="M63.8084 39.4236C60.2751 39.7363 57.3422 39.8937 55.0097 39.8956C53.4561 39.8956 52.3146 39.5338 51.5853 38.81C50.8561 38.0863 50.4915 36.9496 50.4915 35.3998V27.8596C50.4915 26.2076 50.868 25.008 51.621 24.2606C52.3741 23.5133 53.5829 23.1396 55.2475 23.1396H63.8084V26.4436H56.1987C55.2475 26.4436 54.7719 26.9156 54.7719 27.8596V35.3998C54.7647 35.5574 54.7894 35.7149 54.8445 35.8628C54.8997 36.0108 54.9841 36.1462 55.0929 36.2612C55.2006 36.367 55.3289 36.4499 55.47 36.5046C55.6111 36.5594 55.762 36.585 55.9134 36.5798C56.2463 36.5798 56.6119 36.5798 57.0073 36.5798L58.2438 36.5444L59.5399 36.4972C59.9768 36.4795 60.5386 36.45 61.2283 36.4028C61.9179 36.3556 62.7769 36.2996 63.8084 36.2376V39.4236Z" fill="#262626"/>
<path d="M69.6348 27.3876C70.963 27.0962 72.3173 26.938 73.6774 26.9156H74.7475C75.2241 26.8844 75.7019 26.9545 76.149 27.1213C76.5961 27.2881 77.0021 27.5478 77.3398 27.883C77.6775 28.2182 77.9392 28.6211 78.1073 29.0648C78.2754 29.5085 78.3461 29.9827 78.3146 30.4556V39.6596H74.153V30.9276C74.156 30.8184 74.1364 30.7097 74.0955 30.6083C74.0546 30.5068 73.9932 30.4147 73.9152 30.3376C73.838 30.2596 73.7452 30.1984 73.6429 30.1578C73.5406 30.1171 73.4309 30.098 73.3207 30.1016H72.4884C71.936 30.0977 71.384 30.1292 70.8357 30.196C70.3363 30.258 69.9439 30.3052 69.6467 30.3376V39.6596H65.4851V23.1396H69.6467L69.6348 27.3876Z" fill="#262626"/>
<path d="M92.1069 39.4236C89.3424 39.7209 86.5645 39.8784 83.7838 39.8956C83.3072 39.9269 82.8294 39.8568 82.3824 39.6899C81.9353 39.5231 81.5293 39.2634 81.1916 38.9282C80.8538 38.5931 80.5921 38.1901 80.424 37.7465C80.2559 37.3028 80.1853 36.8286 80.2168 36.3556V30.6798C80.2168 29.4998 80.5537 28.5755 81.2275 27.9068C81.9012 27.2381 82.8326 26.9038 84.0216 26.9038H88.7777C89.9667 26.9038 90.8981 27.2381 91.5719 27.9068C92.2457 28.5755 92.5826 29.4998 92.5826 30.6798V35.0458H84.3783V35.9898C84.3755 36.0991 84.3951 36.2077 84.4359 36.3092C84.4767 36.4107 84.5379 36.5029 84.6158 36.5802C84.6936 36.6575 84.7865 36.7182 84.8888 36.7587C84.9911 36.7992 85.1006 36.8187 85.2107 36.8158C86.7802 36.8158 89.0789 36.6978 92.1069 36.4618V39.4236ZM85.3296 29.8656C84.6934 29.8656 84.3783 30.1783 84.3783 30.8096V32.1076H88.421V30.8096C88.421 30.1783 88.1029 29.8656 87.4698 29.8656H85.3296Z" fill="#262626"/>
<path d="M103.165 26.9156C103.74 26.8884 104.312 27.0035 104.831 27.2507C105.35 27.4979 105.799 27.8694 106.137 28.3316C106.863 27.8435 107.667 27.4805 108.515 27.2578C109.254 27.0447 110.017 26.9296 110.786 26.9156H111.024C111.501 26.8843 111.979 26.9544 112.426 27.1213C112.873 27.2881 113.279 27.5478 113.616 27.883C113.954 28.2182 114.216 28.6211 114.384 29.0648C114.552 29.5084 114.623 29.9826 114.591 30.4556V39.6596H110.43V31.1636C110.432 31.0544 110.413 30.9457 110.372 30.8442C110.331 30.7427 110.27 30.6505 110.192 30.5732C110.114 30.4959 110.021 30.4352 109.919 30.3947C109.817 30.3542 109.707 30.3348 109.597 30.3376H109.478C108.55 30.3724 107.63 30.5312 106.744 30.8096V39.6596H102.582V31.1636C102.585 31.0544 102.565 30.9457 102.525 30.8442C102.484 30.7427 102.423 30.6505 102.345 30.5732C102.267 30.4959 102.174 30.4352 102.072 30.3947C101.969 30.3542 101.86 30.3348 101.75 30.3376H101.631C100.702 30.3724 99.7823 30.5312 98.8962 30.8096V39.6596H94.7346V27.1398H98.4206L98.6584 28.3198C99.364 27.8485 100.138 27.4865 100.953 27.246C101.596 27.0402 102.264 26.925 102.939 26.9038L103.165 26.9156Z" fill="#262626"/>
<path d="M129.561 36.1196C129.561 37.2996 129.224 38.2239 128.55 38.8926C127.877 39.5613 126.945 39.8956 125.756 39.8956H120.287C119.098 39.8956 118.166 39.5613 117.493 38.8926C116.819 38.2239 116.482 37.2996 116.482 36.1196V30.6798C116.482 29.4998 116.819 28.5755 117.493 27.9068C118.166 27.2381 119.098 26.9038 120.287 26.9038H125.756C126.945 26.9038 127.877 27.2381 128.55 27.9068C129.224 28.5755 129.561 29.4998 129.561 30.6798V36.1196ZM125.4 31.0456C125.4 30.4143 125.081 30.1016 124.448 30.1016H121.595C120.959 30.1016 120.643 30.4143 120.643 31.0456V35.7656C120.643 36.394 120.959 36.7096 121.595 36.7096H124.448C125.08 36.7096 125.398 36.3949 125.4 35.7656V31.0456Z" fill="#262626"/>
<path d="M138.716 30.3379C137.747 30.3579 136.786 30.5169 135.863 30.81V39.66H131.701V27.1402H135.387L135.625 28.3202C136.333 27.8525 137.109 27.4944 137.926 27.2582C138.568 27.0524 139.237 26.9372 139.911 26.9159H140.981C141.458 26.8847 141.936 26.9548 142.383 27.1216C142.83 27.2885 143.236 27.5481 143.574 27.8833C143.911 28.2185 144.173 28.6214 144.341 29.0651C144.509 29.5088 144.58 29.983 144.548 30.4559V39.66H140.387V31.1639C140.39 31.0547 140.37 30.946 140.329 30.8445C140.289 30.743 140.227 30.6508 140.15 30.5736C140.072 30.4963 139.979 30.4355 139.876 30.395C139.774 30.3545 139.665 30.3351 139.555 30.3379H138.716Z" fill="#262626"/>
<path d="M151.911 27.6238V39.6598H147.75V30.8098H145.966V27.6238H151.911ZM147.75 22.9038H151.911V26.2078H147.75V22.9038Z" fill="#262626"/>
<path d="M165.466 39.4239C162.861 39.7166 160.241 39.8742 157.619 39.8959C157.142 39.9271 156.664 39.857 156.217 39.6902C155.77 39.5234 155.364 39.2637 155.027 38.9285C154.689 38.5933 154.427 38.1904 154.259 37.7467C154.091 37.303 154.02 36.8288 154.052 36.3559V30.9279C154.052 29.7479 154.389 28.8235 155.062 28.1549C155.736 27.4862 156.668 27.1519 157.857 27.1519H165.466V30.3379H159.165C158.531 30.3379 158.213 30.6506 158.213 31.2819V35.8839C158.21 35.9931 158.23 36.1018 158.271 36.2033C158.312 36.3048 158.373 36.397 158.451 36.4742C158.529 36.5515 158.621 36.6123 158.724 36.6528C158.826 36.6933 158.936 36.7127 159.046 36.7099C160.472 36.7099 162.613 36.5919 165.466 36.3559V39.4239Z" fill="#262626"/>
<path d="M167.963 27.3879C170.569 27.0901 173.188 26.9326 175.811 26.9159C176.287 26.8847 176.765 26.9548 177.212 27.1216C177.659 27.2885 178.065 27.5481 178.403 27.8833C178.741 28.2185 179.002 28.6214 179.17 29.0651C179.339 29.5088 179.409 29.983 179.378 30.4559V39.6599H175.692L175.454 38.4799C174.747 38.9489 173.974 39.3108 173.159 39.5537C172.516 39.7581 171.848 39.8733 171.174 39.8959H170.341C169.865 39.9272 169.387 39.8571 168.94 39.6903C168.493 39.5234 168.087 39.2637 167.749 38.9286C167.411 38.5934 167.15 38.1905 166.981 37.7468C166.813 37.3031 166.743 36.8289 166.774 36.3559V35.2939C166.743 34.821 166.813 34.3468 166.981 33.9031C167.15 33.4594 167.411 33.0565 167.749 32.7213C168.087 32.3861 168.493 32.1264 168.94 31.9596C169.387 31.7928 169.865 31.7227 170.341 31.7539H175.216V30.8099C175.219 30.7007 175.199 30.592 175.159 30.4905C175.118 30.389 175.057 30.2968 174.979 30.2196C174.901 30.1423 174.808 30.0815 174.706 30.041C174.603 30.0005 174.494 29.9811 174.384 29.9839C173.355 29.9839 172.218 30.0311 170.971 30.1255C169.729 30.2199 168.724 30.2907 167.963 30.3379V27.3879ZM172.363 36.5919C173.332 36.5705 174.293 36.4116 175.216 36.1199V34.7039H171.768C171.658 34.7011 171.548 34.7205 171.446 34.761C171.344 34.8015 171.251 34.8623 171.173 34.9396C171.095 35.0168 171.034 35.109 170.993 35.2105C170.952 35.312 170.933 35.4207 170.936 35.5299V35.7659C170.933 35.8752 170.952 35.9839 170.993 36.0854C171.034 36.1869 171.095 36.2791 171.173 36.3563C171.251 36.4336 171.344 36.4943 171.446 36.5349C171.548 36.5754 171.658 36.5948 171.768 36.5919H172.363Z" fill="#262626"/>
<path d="M30.9292 32.7216L29.3568 31.1611L23.6525 36.8221V27.2405L28.0815 22.848L26.5061 21.2874L23.6525 24.1194V19.6118H21.429V32.0903L15.3769 26.0841L13.8044 27.6476L21.429 35.2144V44.9435H23.6525V39.9462L30.9292 32.7216Z" fill="url(#paint1_linear)"/>
<defs>
<linearGradient id="paint0_linear" x1="4.66696" y1="28.4203" x2="40.706" y2="28.4203" gradientUnits="userSpaceOnUse">
<stop stop-color="#8CC63F"/>
<stop offset="1" stop-color="#219653"/>
</linearGradient>
<linearGradient id="paint1_linear" x1="809.079" y1="2791.15" x2="1795.64" y2="2791.15" gradientUnits="userSpaceOnUse">
<stop stop-color="#0CA54D"/>
<stop offset="1" stop-color="#219653"/>
</linearGradient>
</defs>
</svg>
