<svg width="22" height="22" viewBox="0 0 22 22" fill="none" xmlns="http://www.w3.org/2000/svg">
<path d="M14.14 10.8128C13.7393 10.5555 13.3044 10.3559 12.848 10.2198C12.568 10.1348 12.258 10.0518 11.938 9.97277C11.658 9.89477 11.326 9.81477 10.916 9.72477C10.4267 9.6222 9.94653 9.48041 9.48001 9.30077C9.23958 9.20737 9.02738 9.05338 8.86401 8.85377C8.74446 8.69043 8.68766 8.48953 8.70401 8.28777C8.70365 8.07144 8.77583 7.86124 8.90901 7.69077C9.09544 7.47243 9.33725 7.30834 9.60901 7.21577C10.0661 7.0587 10.5479 6.98552 11.031 6.99977C11.4049 6.99357 11.7776 7.04277 12.137 7.14577C12.3754 7.21284 12.5999 7.32188 12.8 7.46777C12.9294 7.56012 13.0398 7.67658 13.125 7.81077C13.1868 7.9273 13.2709 8.03047 13.3727 8.11434C13.4745 8.1982 13.5919 8.26111 13.718 8.29943C13.8442 8.33776 13.9767 8.35075 14.108 8.33765C14.2392 8.32455 14.3665 8.28562 14.4827 8.22311C14.5988 8.1606 14.7014 8.07574 14.7846 7.97341C14.8678 7.87108 14.9299 7.75331 14.9674 7.62687C15.0049 7.50043 15.017 7.36783 15.003 7.23669C14.9891 7.10555 14.9493 6.97847 14.886 6.86277C14.6751 6.48979 14.3903 6.16379 14.049 5.90477C13.6547 5.60184 13.2074 5.37497 12.73 5.23577C12.1789 5.07296 11.6066 4.99342 11.032 4.99977C10.3016 4.98405 9.57454 5.10269 8.88701 5.34977C8.26524 5.57612 7.71905 5.97165 7.31001 6.49177C6.91824 7.00895 6.70615 7.63995 6.70601 8.28877C6.68979 8.9347 6.89439 9.56684 7.28601 10.0808C7.6641 10.5569 8.1597 10.9264 8.72401 11.1528C9.15042 11.3168 9.587 11.4531 10.031 11.5608C10.039 11.5638 10.045 11.5708 10.053 11.5728C10.245 11.6308 10.551 11.7078 10.993 11.8028C11.166 11.8408 11.328 11.8818 11.49 11.9228C11.506 11.9268 11.529 11.9318 11.544 11.9368L11.562 11.9388C11.81 12.0028 12.049 12.0678 12.268 12.1348C12.5371 12.2135 12.7939 12.3293 13.031 12.4788C13.1789 12.5717 13.3032 12.6976 13.394 12.8468C13.4819 13.0287 13.5225 13.2299 13.512 13.4318C13.5259 13.693 13.4504 13.9511 13.298 14.1638C13.0922 14.4316 12.8139 14.6346 12.496 14.7488C12.0223 14.9316 11.5166 15.0173 11.009 15.0008C10.4221 15.0233 9.8382 14.9054 9.30601 14.6568C9.06021 14.5259 8.84907 14.3384 8.69001 14.1098C8.57837 13.9635 8.50855 13.7896 8.48801 13.6068C8.48801 13.3416 8.38266 13.0872 8.19512 12.8997C8.00758 12.7121 7.75323 12.6068 7.48801 12.6068C7.2228 12.6068 6.96844 12.7121 6.78091 12.8997C6.59337 13.0872 6.48801 13.3416 6.48801 13.6068C6.5045 14.1969 6.69824 14.7683 7.04401 15.2468C7.38958 15.7444 7.84989 16.1516 8.38601 16.4338C9.20175 16.8318 10.1017 17.0263 11.009 17.0008C11.78 17.0194 12.5468 16.8817 13.263 16.5958C13.9288 16.3403 14.5069 15.8983 14.928 15.3228C15.3283 14.762 15.5335 14.0854 15.512 13.3968C15.5213 12.8629 15.3921 12.3358 15.137 11.8668C14.8906 11.4433 14.5494 11.0829 14.14 10.8138V10.8128ZM21.361 12.6908C21.6306 11.0473 21.5051 9.36336 20.9949 7.77806C20.4846 6.19277 19.6043 4.75173 18.4267 3.57412C17.2491 2.39652 15.808 1.51618 14.2227 1.00593C12.6374 0.495672 10.9534 0.370159 9.31001 0.639769C8.09663 0.0579883 6.73257 -0.1328 5.40612 0.0937402C4.07968 0.32028 2.85626 0.952976 1.90474 1.9045C0.953221 2.85601 0.320524 4.07943 0.0939843 5.40588C-0.132556 6.73232 0.0582325 8.09638 0.640013 9.30977C0.370626 10.953 0.496269 12.6368 1.00655 14.2219C1.51684 15.8069 2.3971 17.2478 3.57456 18.4252C4.75203 19.6027 6.19286 20.4829 7.77793 20.9932C9.363 21.5035 11.0468 21.6292 12.69 21.3598C13.9034 21.9416 15.2675 22.1323 16.5939 21.9058C17.9203 21.6793 19.1438 21.0466 20.0953 20.095C21.0468 19.1435 21.6795 17.9201 21.906 16.5937C22.1326 15.2672 21.9418 13.9032 21.36 12.6898L21.361 12.6908ZM15.5 19.9998C14.7412 19.9994 13.9948 19.8075 13.33 19.4418C13.1238 19.3281 12.8841 19.2906 12.653 19.3358C11.4206 19.5816 10.149 19.5508 8.92986 19.2456C7.71077 18.9404 6.57461 18.3685 5.60333 17.571C4.63206 16.7736 3.84988 15.7705 3.31323 14.6341C2.77658 13.4978 2.49883 12.2565 2.50001 10.9998C2.50104 10.4444 2.55597 9.8905 2.66401 9.34577C2.70925 9.11466 2.67173 8.87499 2.55801 8.66877C2.08847 7.81477 1.90886 6.83141 2.0462 5.86656C2.18353 4.90171 2.63039 4.00752 3.31957 3.31845C4.00876 2.62938 4.90302 2.18267 5.86789 2.04549C6.83276 1.90832 7.81609 2.08808 8.67001 2.55777C8.87644 2.67197 9.11658 2.70951 9.34801 2.66377C10.5804 2.41813 11.8519 2.44905 13.0709 2.7543C14.2898 3.05955 15.4259 3.63152 16.397 4.42895C17.3682 5.22639 18.1502 6.22942 18.6868 7.36569C19.2234 8.50197 19.5012 9.74317 19.5 10.9998C19.499 11.5551 19.4441 12.109 19.336 12.6538C19.2908 12.8849 19.3283 13.1245 19.442 13.3308C19.8192 14.0159 20.0113 14.7875 19.9994 15.5695C19.9875 16.3514 19.7719 17.1168 19.3739 17.7901C18.976 18.4633 18.4094 19.0212 17.73 19.4087C17.0507 19.7962 16.2821 19.9999 15.5 19.9998Z" fill="white"/>
</svg>
