<svg width="22" height="22" viewBox="0 0 22 22" fill="none" xmlns="http://www.w3.org/2000/svg">
<path d="M21.2649 1.42815C20.9802 1.1913 20.6366 1.03609 20.2707 0.97904C19.9047 0.921986 19.5302 0.965222 19.1869 1.10415L1.2659 8.33915C0.882757 8.49684 0.556615 8.76731 0.330748 9.11466C0.10488 9.46202 -0.0100358 9.86983 0.00124609 10.284C0.012528 10.6982 0.149474 11.0991 0.393916 11.4337C0.638358 11.7682 0.978741 12.0205 1.3699 12.1571L4.9949 13.4181L7.0149 20.1001C7.04259 20.1893 7.08265 20.2741 7.1339 20.3521C7.1419 20.3641 7.1529 20.3721 7.1609 20.3851C7.21983 20.4672 7.29099 20.5397 7.3719 20.6001C7.39449 20.6178 7.41784 20.6345 7.4419 20.6501C7.53662 20.713 7.6415 20.759 7.7519 20.7861L7.7649 20.7871L7.7709 20.7901C7.83773 20.8036 7.90574 20.8103 7.9739 20.8101L7.9919 20.8071C8.09432 20.8054 8.19585 20.7879 8.2929 20.7551C8.3159 20.7471 8.3349 20.7351 8.3569 20.7251C8.4295 20.6954 8.49831 20.6571 8.5619 20.6111C8.61255 20.5681 8.66322 20.5251 8.7139 20.4821L11.4159 17.4991L15.4459 20.6211C15.8006 20.8974 16.2373 21.0477 16.6869 21.0481C17.1581 21.0476 17.6149 20.885 17.9805 20.5877C18.3461 20.2904 18.5983 19.8764 18.6949 19.4151L21.9579 3.39815C22.0317 3.0378 22.0062 2.66418 21.8842 2.3172C21.7621 1.97022 21.5481 1.66292 21.2649 1.42815ZM8.3699 13.7361C8.23141 13.8744 8.13679 14.0504 8.0979 14.2421L7.7879 15.7461L7.0039 13.1531L11.0689 11.0361L8.3699 13.7361ZM16.6719 19.0401L11.9089 15.3501C11.7096 15.1964 11.4597 15.1233 11.2089 15.1455C10.9582 15.1678 10.725 15.2837 10.5559 15.4701L9.6899 16.4251L9.9959 14.9381L17.0789 7.85515C17.247 7.68606 17.3491 7.4625 17.3669 7.22477C17.3846 6.98703 17.3169 6.75077 17.1759 6.55857C17.0348 6.36638 16.8297 6.23089 16.5976 6.17654C16.3655 6.12219 16.1216 6.15255 15.9099 6.26215L5.7449 11.5541L2.0199 10.1911L19.9989 3.00015L16.6719 19.0401Z" fill="white"/>
</svg>
